<?xml version="1.0" encoding="iso-8859-1"?>
<!-- Generator: Adobe Illustrator 23.0.5, SVG Export Plug-In . SVG Version: 6.00 Build 0)  -->
<svg version="1.1" xmlns="http://www.w3.org/2000/svg" xmlns:xlink="http://www.w3.org/1999/xlink" x="0px" y="0px"
	 viewBox="0 0 492 492" style="enable-background:new 0 0 492 492;" xml:space="preserve">
<g id="Master_Layer_2">
</g>
<g id="Layer_1">
	<g>
		<g>
			<g>
				<g>
					<g>
						<path style="fill-rule:evenodd;clip-rule:evenodd;fill:#D4AA00;" d="M254.689,279.344c-1.512,0-3.024-0.6-4.152-1.776
							c-2.208-2.304-2.112-5.952,0.192-8.136c11.424-10.92,20.88-25.176,27.36-41.256c6.84-16.944,10.32-35.28,10.32-54.456
							s-3.48-37.488-10.32-54.456c-6.48-16.08-15.96-30.336-27.36-41.256c-2.304-2.208-2.376-5.856-0.192-8.136
							c2.208-2.304,5.856-2.376,8.136-0.192c12.576,12.048,22.992,27.696,30.096,45.264c7.392,18.336,11.16,38.112,11.16,58.752
							s-3.744,40.416-11.16,58.752c-7.104,17.568-17.496,33.24-30.096,45.264C257.569,278.816,256.129,279.344,254.689,279.344z"/>
					</g>
					<g>
						<path style="fill-rule:evenodd;clip-rule:evenodd;fill:#D4AA00;" d="M246.265,279.68c-3.192,0-5.76-2.568-5.76-5.76V73.496
							c0-3.192,2.568-5.76,5.76-5.76c3.192,0,5.76,2.568,5.76,5.76v200.448C252.025,277.112,249.458,279.68,246.265,279.68z"/>
					</g>
					<g>
						<path style="fill-rule:evenodd;clip-rule:evenodd;fill:#D4AA00;" d="M237.841,279.344c-1.44,0-2.856-0.528-3.984-1.608
							c-12.576-12.048-22.992-27.696-30.096-45.264c-7.392-18.336-11.16-38.112-11.16-58.752c0-20.664,3.744-40.416,11.16-58.752
							c7.104-17.568,17.496-33.24,30.096-45.264c2.304-2.208,5.952-2.112,8.136,0.192c2.208,2.304,2.112,5.952-0.192,8.136
							c-11.424,10.92-20.88,25.176-27.36,41.256c-6.84,16.944-10.32,35.28-10.32,54.456s3.48,37.488,10.32,54.456
							c6.48,16.08,15.96,30.336,27.36,41.256c2.304,2.208,2.376,5.856,0.192,8.136C240.865,278.744,239.354,279.344,237.841,279.344
							z"/>
					</g>
					<g>
						<path style="fill-rule:evenodd;clip-rule:evenodd;fill:#D4AA00;" d="M323.785,242.984c-1.056,0-2.112-0.288-3.048-0.888
							c-10.368-6.504-21.888-11.568-34.296-15.048c-12.864-3.624-26.376-5.448-40.176-5.448c-13.776,0-27.312,1.824-40.176,5.448
							c-12.408,3.48-23.928,8.544-34.296,15.048c-2.688,1.68-6.24,0.888-7.944-1.824c-1.68-2.688-0.888-6.24,1.824-7.944
							c11.28-7.08,23.832-12.6,37.296-16.368c13.872-3.912,28.44-5.88,43.296-5.88c14.832,0,29.4,1.968,43.296,5.88
							c13.464,3.792,26.016,9.288,37.296,16.368c2.688,1.68,3.504,5.256,1.824,7.944
							C327.577,242.024,325.705,242.984,323.785,242.984z"/>
					</g>
					<g>
						<path style="fill-rule:evenodd;clip-rule:evenodd;fill:#D4AA00;" d="M346.49,179.48H146.042c-3.192,0-5.76-2.568-5.76-5.76
							c0-3.192,2.568-5.76,5.76-5.76H346.49c3.192,0,5.76,2.568,5.76,5.76C352.249,176.912,349.681,179.48,346.49,179.48z"/>
					</g>
					<g>
						<path style="fill-rule:evenodd;clip-rule:evenodd;fill:#D4AA00;" d="M246.265,136.448c-14.736,0-29.184-1.944-42.984-5.808
							c-13.368-3.72-25.848-9.168-37.104-16.152c-2.712-1.68-3.528-5.232-1.848-7.944c1.68-2.712,5.232-3.528,7.944-1.848
							c10.32,6.408,21.792,11.4,34.128,14.832c12.792,3.576,26.208,5.376,39.888,5.376s27.096-1.8,39.888-5.376
							c12.312-3.432,23.808-8.424,34.128-14.832c2.712-1.68,6.264-0.84,7.944,1.848c1.68,2.712,0.84,6.264-1.848,7.944
							c-11.256,6.984-23.736,12.432-37.104,16.152C275.45,134.504,261.001,136.448,246.265,136.448z"/>
					</g>
					<g>
						<path style="fill-rule:evenodd;clip-rule:evenodd;fill:#D4AA00;" d="M246.265,279.704c-14.304,0-28.176-2.808-41.256-8.328
							c-12.624-5.328-23.952-12.984-33.696-22.704c-9.744-9.72-17.376-21.072-22.704-33.696c-5.52-13.08-8.328-26.952-8.328-41.256
							c0-14.304,2.808-28.176,8.328-41.256c5.328-12.624,12.984-23.952,22.704-33.696s21.072-17.376,33.696-22.704
							c13.08-5.52,26.952-8.328,41.256-8.328c14.304,0,28.176,2.808,41.256,8.328c12.624,5.328,23.952,12.984,33.696,22.704
							c9.744,9.72,17.376,21.072,22.704,33.696c5.52,13.08,8.328,26.952,8.328,41.256c0,14.304-2.808,28.176-8.328,41.256
							c-5.328,12.624-12.984,23.952-22.704,33.696c-9.72,9.744-21.072,17.376-33.696,22.704
							C274.442,276.896,260.569,279.704,246.265,279.704L246.265,279.704z M246.265,79.256c-12.744,0-25.128,2.496-36.768,7.416
							c-11.256,4.752-21.36,11.568-30.024,20.256c-8.688,8.688-15.48,18.792-20.256,30.024c-4.92,11.64-7.416,24.024-7.416,36.768
							c0,12.744,2.496,25.128,7.416,36.768c4.752,11.256,11.568,21.36,20.256,30.024c8.688,8.688,18.792,15.48,30.024,20.256
							c11.64,4.92,24.024,7.416,36.768,7.416c12.744,0,25.128-2.496,36.768-7.416c11.256-4.752,21.36-11.568,30.024-20.256
							c8.688-8.688,15.48-18.792,20.256-30.024c4.92-11.64,7.416-24.024,7.416-36.768c0-12.744-2.496-25.128-7.416-36.768
							c-4.752-11.256-11.568-21.36-20.256-30.024c-8.688-8.688-18.792-15.48-30.024-20.256
							C271.393,81.752,259.009,79.256,246.265,79.256z"/>
					</g>
				</g>
				<g>
					<g>
						<g>
							<path style="fill-rule:evenodd;clip-rule:evenodd;fill:#D4AA00;" d="M164.833,396.056c-2.376,0-4.584-1.464-5.424-3.84
								c-4.464-12.528-2.472-24.504-0.696-35.064c1.704-10.128,3.168-18.864-1.392-25.776c-1.896-2.88-5.808-5.52-10.32-8.544
								c-7.344-4.944-16.464-11.064-22.2-22.104c-1.968-3.792-5.496-8.208-8.928-8.232h-0.024c-1.32,0-2.448,0.792-3.288,2.376
								c-0.792,1.488-1.992,4.872-0.912,10.92c1.056,6,4.104,12.912,8.784,19.992c1.752,2.664,1.032,6.216-1.632,7.992
								c-2.664,1.752-6.216,1.032-7.992-1.632c-5.616-8.52-9.144-16.704-10.512-24.336c-1.272-7.152-0.528-13.536,2.136-18.432
								c2.856-5.28,7.872-8.4,13.416-8.4c0.048,0,0.072,0,0.12,0c7.344,0.072,14.28,5.328,19.032,14.424
								c4.392,8.424,11.52,13.224,18.432,17.856c5.328,3.576,10.344,6.96,13.512,11.784c7.032,10.68,5.04,22.536,3.12,34.008
								c-1.608,9.624-3.264,19.584,0.192,29.28c1.056,3-0.504,6.288-3.504,7.368C166.13,395.96,165.481,396.056,164.833,396.056z"/>
						</g>
						<g>
							<path style="fill-rule:evenodd;clip-rule:evenodd;fill:#D4AA00;" d="M106.657,396.272c-0.24,0-0.48-0.024-0.744-0.048
								c-3.144-0.408-5.376-3.288-4.968-6.456c2.352-18.312-1.824-24.024-6.312-28.296c-15.744-15.072-21-29.112-25.224-40.416
								c-0.264-0.672-0.504-1.344-0.744-2.016c-3.168-8.376-5.856-26.904-6.528-45.072c-0.36-9.528-0.12-18.192,0.672-25.032
								c1.032-9,2.928-14.784,5.976-18.192c5.4-6.048,10.752-5.856,13.464-5.208c4.296,1.032,10.152,5.016,13.584,18.096
								c0.192,0.744,0.408,1.968,0.984,5.352c2.256,13.08,9.072,52.92,19.608,70.104c1.656,2.712,0.816,6.264-1.896,7.92
								c-2.712,1.656-6.264,0.816-7.92-1.896C94.921,306.032,88.057,266,85.465,250.928c-0.336-1.92-0.672-3.912-0.792-4.392
								c-2.016-7.656-4.584-9.696-5.112-9.792c0,0-0.768,0.096-2.184,1.68c-1.68,1.872-4.608,11.64-3.72,35.136
								c0.624,16.776,3.072,34.224,5.784,41.448c0.264,0.672,0.504,1.344,0.768,2.04c4.008,10.728,8.544,22.872,22.392,36.12
								c4.56,4.368,7.44,9.048,9.024,14.688c1.752,6.24,1.992,13.68,0.744,23.4C111.985,394.16,109.514,396.272,106.657,396.272z"/>
						</g>
					</g>
					<g>
						<path style="fill-rule:evenodd;clip-rule:evenodd;fill:#D4AA00;" d="M183.913,425.744c-3.192,0-5.76-2.568-5.76-5.76v-23.688
							H93.41v23.688c0,3.192-2.568,5.76-5.76,5.76s-5.76-2.568-5.76-5.76v-29.448c0-3.192,2.568-5.76,5.76-5.76h96.288
							c3.192,0,5.76,2.568,5.76,5.76v29.448C189.673,423.152,187.106,425.744,183.913,425.744z"/>
					</g>
					<g>
						<g>
							<g>
								<path style="fill-rule:evenodd;clip-rule:evenodd;fill:#D4AA00;" d="M327.697,396.056c-0.648,0-1.296-0.12-1.944-0.336
									c-3-1.056-4.56-4.368-3.504-7.368c3.456-9.72,1.8-19.656,0.192-29.28c-1.92-11.472-3.912-23.328,3.12-34.008
									c3.168-4.8,8.208-8.184,13.512-11.784c6.888-4.632,14.04-9.432,18.432-17.856c4.752-9.12,11.688-14.376,19.032-14.424
									c5.592-0.048,10.656,3.096,13.536,8.4c2.664,4.896,3.408,11.28,2.136,18.432c-1.344,7.632-4.896,15.84-10.512,24.336
									c-1.752,2.664-5.328,3.384-7.992,1.632c-2.664-1.752-3.384-5.328-1.632-7.992c4.68-7.08,7.704-13.992,8.784-19.992
									c1.08-6.072-0.12-9.456-0.912-10.92c-0.864-1.584-1.968-2.376-3.288-2.376h-0.024c-2.136,0.024-5.76,2.184-8.928,8.232
									c-5.736,11.016-14.88,17.16-22.2,22.104c-4.536,3.048-8.424,5.664-10.32,8.544c-4.536,6.888-3.072,15.648-1.392,25.776
									c1.776,10.56,3.768,22.512-0.696,35.064C332.281,394.592,330.073,396.056,327.697,396.056z"/>
							</g>
							<g>
								<path style="fill-rule:evenodd;clip-rule:evenodd;fill:#D4AA00;" d="M385.874,396.272c-2.856,0-5.328-2.112-5.712-5.016
									c-1.248-9.744-1.008-17.16,0.744-23.4c1.584-5.664,4.464-10.32,9.024-14.688c13.848-13.248,18.384-25.392,22.392-36.12
									c0.264-0.696,0.504-1.368,0.768-2.04c2.736-7.224,5.16-24.648,5.784-41.448c0.888-23.496-2.064-33.264-3.72-35.136
									c-1.416-1.584-2.184-1.68-2.184-1.68c-0.528,0.096-3.096,2.136-5.112,9.792c-0.12,0.48-0.456,2.472-0.792,4.392
									c-2.592,15.072-9.456,55.104-21.144,74.184c-1.656,2.712-5.208,3.576-7.92,1.896c-2.712-1.656-3.576-5.208-1.896-7.92
									c10.536-17.184,17.376-57.024,19.608-70.104c0.576-3.384,0.792-4.584,0.984-5.352c3.432-13.08,9.288-17.064,13.584-18.096
									c2.712-0.648,8.064-0.84,13.464,5.208c3.048,3.408,4.944,9.192,5.976,18.192c0.792,6.864,1.008,15.504,0.672,25.032
									c-0.672,18.168-3.36,36.696-6.528,45.072c-0.24,0.648-0.504,1.32-0.744,2.016c-4.224,11.304-9.48,25.344-25.224,40.416
									c-4.488,4.296-8.664,10.008-6.312,28.296c0.408,3.144-1.824,6.048-4.968,6.456
									C386.378,396.272,386.113,396.272,385.874,396.272z"/>
							</g>
						</g>
						<g>
							<path style="fill-rule:evenodd;clip-rule:evenodd;fill:#D4AA00;" d="M404.882,425.744c-3.192,0-5.76-2.568-5.76-5.76v-23.688
								h-84.768v23.688c0,3.192-2.568,5.76-5.76,5.76c-3.192,0-5.76-2.568-5.76-5.76v-29.448c0-3.192,2.568-5.76,5.76-5.76h96.288
								c3.192,0,5.76,2.568,5.76,5.76v29.448C410.641,423.152,408.073,425.744,404.882,425.744z"/>
						</g>
					</g>
				</g>
			</g>
		</g>
	</g>
</g>
</svg>
